<?xml version="1.0" encoding="utf-8"?>
<!-- Generator: Adobe Illustrator 16.0.3, SVG Export Plug-In . SVG Version: 6.00 Build 0)  -->
<!DOCTYPE svg PUBLIC "-//W3C//DTD SVG 1.1//EN" "http://www.w3.org/Graphics/SVG/1.1/DTD/svg11.dtd">
<svg version="1.1" id="Ebene_1" xmlns="http://www.w3.org/2000/svg" xmlns:xlink="http://www.w3.org/1999/xlink" x="0px" y="0px"
	 width="98.75px" height="98.75px" viewBox="0 0 98.75 98.75" enable-background="new 0 0 98.75 98.75" xml:space="preserve">
<g>
	<path fill="#BFBFBF" d="M49.25,0c27.25,0,49.5,22.25,49.5,49.25c0,27.25-22.25,49.5-49.5,49.5S0,76.5,0,49.25C0,22.25,22,0,49.25,0
		L49.25,0z"/>
</g>
<polygon display="none" points="52.5,66.25 52.5,32.5 71.5,32.5 71.5,36 57.25,36 57.25,47.5 69.25,47.5 69.25,51 57.25,51 
	57.25,66.25 52.5,66.25 "/>
<polygon display="none" points="27.25,66.25 27.25,32.5 46.25,32.5 46.25,36 32,36 32,47.5 44,47.5 44,51 32,51 32,66.25 
	27.25,66.25 "/>
<g>
	<path d="M24.953,67.447l-8.93-34.688h4.744l7.096,27.376l6.554-27.376h4.734l6.154,27.009l7.647-27.009h4.016l-9.727,34.688H42.32
		L36.24,40.762l-6.412,26.685H24.953z"/>
	<path d="M61.516,67.447V32.76h19.383v3.68H66.438v11.625h12.141v3.633H66.438v15.75H61.516z"/>
</g>
<g>
</g>
<g>
</g>
<g>
</g>
<g>
</g>
<g>
</g>
<g>
</g>
<g>
</g>
<g>
</g>
<g>
</g>
<g>
</g>
<g>
</g>
<g>
</g>
<g>
</g>
<g>
</g>
<g>
</g>
</svg>
