<?xml version="1.0" encoding="utf-8"?>
<!-- Generator: Adobe Illustrator 16.0.3, SVG Export Plug-In . SVG Version: 6.00 Build 0)  -->
<!DOCTYPE svg PUBLIC "-//W3C//DTD SVG 1.1//EN" "http://www.w3.org/Graphics/SVG/1.1/DTD/svg11.dtd">
<svg version="1.1" id="Ebene_1" xmlns="http://www.w3.org/2000/svg" xmlns:xlink="http://www.w3.org/1999/xlink" x="0px" y="0px"
	 width="98.75px" height="98.75px" viewBox="0 0 98.75 98.75" enable-background="new 0 0 98.75 98.75" xml:space="preserve">
<g>
	<path fill="#FCD5B5" d="M49.25,0c27.25,0,49.5,22.25,49.5,49.25c0,27.25-22.25,49.5-49.5,49.5S0,76.5,0,49.25C0,22.25,22,0,49.25,0
		L49.25,0z"/>
</g>
<polygon display="none" points="52.5,66.25 52.5,32.5 71.5,32.5 71.5,36 57.25,36 57.25,47.5 69.25,47.5 69.25,51 57.25,51 
	57.25,66.25 52.5,66.25 "/>
<polygon display="none" points="27.25,66.25 27.25,32.5 46.25,32.5 46.25,36 32,36 32,47.5 44,47.5 44,51 32,51 32,66.25 
	27.25,66.25 "/>
<g>
	<path d="M27.18,67.447V32.76h9c3.469,0,6.129,0.656,7.98,1.969s2.777,3.203,2.777,5.672c0,2-0.617,3.781-1.852,5.344
		s-2.992,2.773-5.273,3.633c5.672,1.734,8.508,4.867,8.508,9.398c0,2.031-0.625,3.836-1.875,5.414
		c-0.953,1.203-2.102,2.047-3.445,2.531s-3.211,0.727-5.602,0.727H27.18z M32.055,47.994h1.57c2.641,0,4.68-0.563,6.117-1.688
		s2.156-2.727,2.156-4.805c0-3.375-2.641-5.063-7.922-5.063h-1.922V47.994z M32.055,63.768h1.006c3.602,0,5.933-0.227,6.993-0.68
		c2.026-0.859,3.04-2.453,3.04-4.781c0-2.063-0.92-3.777-2.76-5.145s-4.14-2.051-6.899-2.051h-1.38V63.768z"/>
	<path d="M54.789,67.447V32.76h19.383v3.68H59.711v11.625h12.141v3.633H59.711v15.75H54.789z"/>
</g>
<g>
</g>
<g>
</g>
<g>
</g>
<g>
</g>
<g>
</g>
<g>
</g>
<g>
</g>
<g>
</g>
<g>
</g>
<g>
</g>
<g>
</g>
<g>
</g>
<g>
</g>
<g>
</g>
<g>
</g>
<g>
</g>
</svg>
