<?xml version="1.0" encoding="utf-8"?>
<!-- Generator: Adobe Illustrator 16.0.3, SVG Export Plug-In . SVG Version: 6.00 Build 0)  -->
<!DOCTYPE svg PUBLIC "-//W3C//DTD SVG 1.1//EN" "http://www.w3.org/Graphics/SVG/1.1/DTD/svg11.dtd">
<svg version="1.1" id="Ebene_1" xmlns="http://www.w3.org/2000/svg" xmlns:xlink="http://www.w3.org/1999/xlink" x="0px" y="0px"
	 width="98.75px" height="98.75px" viewBox="0 0 98.75 98.75" enable-background="new 0 0 98.75 98.75" xml:space="preserve">
<g>
	<path fill="#BCBCBC" d="M49.25,0c27.25,0,49.5,22.25,49.5,49.25c0,27.25-22.25,49.5-49.5,49.5S0,76.5,0,49.25C0,22.25,22,0,49.25,0
		L49.25,0z"/>
</g>
<polygon display="none" points="52.5,66.25 52.5,32.5 71.5,32.5 71.5,36 57.25,36 57.25,47.5 69.25,47.5 69.25,51 57.25,51 
	57.25,66.25 52.5,66.25 "/>
<polygon display="none" points="27.25,66.25 27.25,32.5 46.25,32.5 46.25,36 32,36 32,47.5 44,47.5 44,51 32,51 32,66.25 
	27.25,66.25 "/>
<g>
	<path d="M40.762,66.51c-4.203,1.203-7.867,1.805-10.992,1.805c-5.516,0-9.746-1.566-12.691-4.699s-4.418-7.637-4.418-13.512
		c0-5.781,1.496-10.262,4.488-13.441s7.199-4.77,12.621-4.77c3.484,0,7.133,0.523,10.945,1.57v4.547
		c-4.781-1.625-8.445-2.438-10.992-2.438c-3.75,0-6.66,1.27-8.73,3.809s-3.105,6.121-3.105,10.746c0,4.578,1.108,8.141,3.324,10.688
		c2.215,2.547,5.321,3.82,9.316,3.82c1.639,0,3.41-0.289,5.313-0.867V52.471h4.922V66.51z"/>
	<path d="M65.441,67.447v-4.781c-2.453,3.578-5.43,5.367-8.93,5.367c-2.219,0-3.984-0.699-5.297-2.098s-1.969-3.285-1.969-5.66
		V41.994h4.617v16.781c0,1.906,0.277,3.262,0.832,4.066s1.48,1.207,2.777,1.207c2.813,0,5.469-1.852,7.969-5.555v-16.5h4.617v25.453
		H65.441z"/>
	<path d="M79.152,67.447V32.76h4.922v34.688H79.152z"/>
</g>
</svg>
