<?xml version="1.0" encoding="utf-8"?>
<!-- Generator: Adobe Illustrator 16.0.3, SVG Export Plug-In . SVG Version: 6.00 Build 0)  -->
<!DOCTYPE svg PUBLIC "-//W3C//DTD SVG 1.1//EN" "http://www.w3.org/Graphics/SVG/1.1/DTD/svg11.dtd">
<svg version="1.1" id="Ebene_1" xmlns="http://www.w3.org/2000/svg" xmlns:xlink="http://www.w3.org/1999/xlink" x="0px" y="0px"
	 width="98.75px" height="98.75px" viewBox="0 0 98.75 98.75" enable-background="new 0 0 98.75 98.75" xml:space="preserve">
<g>
	<path fill="#FF8633" d="M49.25,0c27.25,0,49.5,22.25,49.5,49.25c0,27.25-22.25,49.5-49.5,49.5S0,76.5,0,49.25C0,22.25,22,0,49.25,0
		L49.25,0z"/>
</g>
<polygon display="none" points="52.5,66.25 52.5,32.5 71.5,32.5 71.5,36 57.25,36 57.25,47.5 69.25,47.5 69.25,51 57.25,51 
	57.25,66.25 52.5,66.25 "/>
<polygon display="none" points="27.25,66.25 27.25,32.5 46.25,32.5 46.25,36 32,36 32,47.5 44,47.5 44,51 32,51 32,66.25 
	27.25,66.25 "/>
<g>
	<path d="M20.148,66.791v-4.875c3.906,1.813,7.125,2.719,9.656,2.719c1.922,0,3.473-0.512,4.652-1.535s1.77-2.355,1.77-3.996
		c0-1.359-0.387-2.516-1.16-3.469s-2.199-2.016-4.277-3.188l-2.391-1.383c-2.953-1.688-5.035-3.277-6.246-4.77
		s-1.816-3.223-1.816-5.191c0-2.688,0.969-4.895,2.906-6.621s4.406-2.59,7.406-2.59c2.672,0,5.492,0.445,8.461,1.336v4.5
		c-3.656-1.438-6.383-2.156-8.18-2.156c-1.703,0-3.109,0.453-4.219,1.359s-1.664,2.047-1.664,3.422c0,1.156,0.406,2.18,1.219,3.07
		s2.297,1.953,4.453,3.188l2.484,1.406c3,1.703,5.094,3.313,6.281,4.828s1.781,3.336,1.781,5.461c0,3.016-1.109,5.438-3.328,7.266
		s-5.164,2.742-8.836,2.742C26.758,68.314,23.773,67.807,20.148,66.791z"/>
	<path d="M62.313,68.314c-4.922,0-8.855-1.652-11.801-4.957s-4.418-7.723-4.418-13.254s1.473-9.949,4.418-13.254
		s6.879-4.957,11.801-4.957s8.855,1.652,11.801,4.957s4.418,7.723,4.418,13.254s-1.473,9.949-4.418,13.254
		S67.234,68.314,62.313,68.314z M62.313,64.635c3.453,0,6.148-1.285,8.086-3.855s2.906-6.145,2.906-10.723
		c0-4.547-0.969-8.098-2.906-10.652s-4.633-3.832-8.086-3.832s-6.148,1.277-8.086,3.832S51.32,45.51,51.32,50.057
		c0,4.578,0.969,8.152,2.906,10.723S58.859,64.635,62.313,64.635z"/>
</g>
</svg>
