<?xml version="1.0" encoding="utf-8"?>
<!-- Generator: Adobe Illustrator 16.0.3, SVG Export Plug-In . SVG Version: 6.00 Build 0)  -->
<!DOCTYPE svg PUBLIC "-//W3C//DTD SVG 1.1//EN" "http://www.w3.org/Graphics/SVG/1.1/DTD/svg11.dtd">
<svg version="1.1" id="Ebene_1" xmlns="http://www.w3.org/2000/svg" xmlns:xlink="http://www.w3.org/1999/xlink" x="0px" y="0px"
	 width="98.75px" height="98.75px" viewBox="0 0 98.75 98.75" enable-background="new 0 0 98.75 98.75" xml:space="preserve">
<g>
	<path fill="#FFAA23" d="M49.25,0c27.25,0,49.5,22.25,49.5,49.25c0,27.25-22.25,49.5-49.5,49.5S0,76.5,0,49.25C0,22.25,22,0,49.25,0
		L49.25,0z"/>
</g>
<polygon display="none" points="52.5,66.25 52.5,32.5 71.5,32.5 71.5,36 57.25,36 57.25,47.5 69.25,47.5 69.25,51 57.25,51 
	57.25,66.25 52.5,66.25 "/>
<polygon display="none" points="27.25,66.25 27.25,32.5 46.25,32.5 46.25,36 32,36 32,47.5 44,47.5 44,51 32,51 32,66.25 
	27.25,66.25 "/>
<g>
	<path d="M63.309,65.666c-3.422,1.766-7.156,2.648-11.203,2.648c-5.391,0-9.555-1.578-12.492-4.734s-4.406-7.641-4.406-13.453
		c0-5.797,1.496-10.285,4.488-13.465s7.215-4.77,12.668-4.77c3.094,0,6.727,0.508,10.898,1.523v4.617
		c-4.75-1.641-8.414-2.461-10.992-2.461c-3.766,0-6.68,1.273-8.742,3.82s-3.094,6.141-3.094,10.781c0,4.438,1.102,7.93,3.305,10.477
		s5.219,3.82,9.047,3.82c3.266,0,6.773-1.008,10.523-3.023V65.666z"/>
</g>
</svg>
