<?xml version="1.0" encoding="utf-8"?>
<!-- Generator: Adobe Illustrator 16.0.3, SVG Export Plug-In . SVG Version: 6.00 Build 0)  -->
<!DOCTYPE svg PUBLIC "-//W3C//DTD SVG 1.1//EN" "http://www.w3.org/Graphics/SVG/1.1/DTD/svg11.dtd">
<svg version="1.1" id="Ebene_1" xmlns="http://www.w3.org/2000/svg" xmlns:xlink="http://www.w3.org/1999/xlink" x="0px" y="0px"
	 width="98.75px" height="98.75px" viewBox="0 0 98.75 98.75" enable-background="new 0 0 98.75 98.75" xml:space="preserve">
<g>
	<path fill="#FFAA23" d="M49.25,0c27.25,0,49.5,22.25,49.5,49.25c0,27.25-22.25,49.5-49.5,49.5S0,76.5,0,49.25C0,22.25,22,0,49.25,0
		L49.25,0z"/>
</g>
<polygon display="none" points="52.5,66.25 52.5,32.5 71.5,32.5 71.5,36 57.25,36 57.25,47.5 69.25,47.5 69.25,51 57.25,51 
	57.25,66.25 52.5,66.25 "/>
<polygon display="none" points="27.25,66.25 27.25,32.5 46.25,32.5 46.25,36 32,36 32,47.5 44,47.5 44,51 32,51 32,66.25 
	27.25,66.25 "/>
<g>
	<path d="M23.934,32.76h4.922V54.65c0,3.484,0.644,6.02,1.931,7.605s3.335,2.379,6.143,2.379c2.746,0,4.692-0.746,5.839-2.238
		s1.72-4.02,1.72-7.582V32.76h4.336v21.984c0,3.031-0.297,5.359-0.891,6.984s-1.664,3.055-3.211,4.289
		c-1.938,1.531-4.602,2.297-7.992,2.297c-4.391,0-7.621-1.109-9.691-3.328s-3.105-5.68-3.105-10.383V32.76z"/>
	<path d="M57.473,67.447V32.76h19.383v3.68H62.395v11.133h12.117v3.633H62.395v12.563h15.469v3.68H57.473z"/>
</g>
<rect x="504" y="19" fill="none" width="4" height="5"/>
</svg>
