<?xml version="1.0" encoding="utf-8"?>
<!-- Generator: Adobe Illustrator 16.0.3, SVG Export Plug-In . SVG Version: 6.00 Build 0)  -->
<!DOCTYPE svg PUBLIC "-//W3C//DTD SVG 1.1//EN" "http://www.w3.org/Graphics/SVG/1.1/DTD/svg11.dtd">
<svg version="1.1" id="Ebene_1" xmlns="http://www.w3.org/2000/svg" xmlns:xlink="http://www.w3.org/1999/xlink" x="0px" y="0px"
	 width="98.75px" height="98.75px" viewBox="0 0 98.75 98.75" enable-background="new 0 0 98.75 98.75" xml:space="preserve">
<g>
	<path fill="#00B450" d="M49.25,0c27.25,0,49.5,22.25,49.5,49.25c0,27.25-22.25,49.5-49.5,49.5S0,76.5,0,49.25C0,22.25,22,0,49.25,0
		L49.25,0z"/>
</g>
<polygon display="none" points="52.5,66.25 52.5,32.5 71.5,32.5 71.5,36 57.25,36 57.25,47.5 69.25,47.5 69.25,51 57.25,51 
	57.25,66.25 52.5,66.25 "/>
<polygon display="none" points="27.25,66.25 27.25,32.5 46.25,32.5 46.25,36 32,36 32,47.5 44,47.5 44,51 32,51 32,66.25 
	27.25,66.25 "/>
<g>
	<path d="M39.676,67.447V32.76h10.5c3.328,0,5.879,0.734,7.652,2.203s2.66,3.602,2.66,6.398c0,2.203-0.613,4.164-1.84,5.883
		s-2.949,3.039-5.168,3.961l11.578,16.242h-6.045l-9.883-14.672h-4.58v14.672H39.676z M44.551,49.096h1.597
		c3.038,0,5.347-0.617,6.929-1.852c1.581-1.234,2.372-3.039,2.372-5.414c0-3.594-2.6-5.391-7.798-5.391h-3.101V49.096z"/>
</g>
</svg>
