<?xml version="1.0" encoding="utf-8"?>
<!-- Generator: Adobe Illustrator 16.0.3, SVG Export Plug-In . SVG Version: 6.00 Build 0)  -->
<!DOCTYPE svg PUBLIC "-//W3C//DTD SVG 1.1//EN" "http://www.w3.org/Graphics/SVG/1.1/DTD/svg11.dtd">
<svg version="1.1" id="Ebene_1" xmlns="http://www.w3.org/2000/svg" xmlns:xlink="http://www.w3.org/1999/xlink" x="0px" y="0px"
	 width="98.75px" height="98.75px" viewBox="0 0 98.75 98.75" enable-background="new 0 0 98.75 98.75" xml:space="preserve">
<g>
	<path fill="#FFAA23" d="M49.25,0c27.25,0,49.5,22.25,49.5,49.25c0,27.25-22.25,49.5-49.5,49.5S0,76.5,0,49.25C0,22.25,22,0,49.25,0
		L49.25,0z"/>
</g>
<polygon display="none" points="52.5,66.25 52.5,32.5 71.5,32.5 71.5,36 57.25,36 57.25,47.5 69.25,47.5 69.25,51 57.25,51 
	57.25,66.25 "/>
<polygon display="none" points="27.25,66.25 27.25,32.5 46.25,32.5 46.25,36 32,36 32,47.5 44,47.5 44,51 32,51 32,66.25 "/>
<g id="S" enable-background="new    ">
	<path d="M12.473,66.791v-4.875c3.906,1.813,7.125,2.719,9.656,2.719c1.922,0,3.473-0.512,4.652-1.535s1.77-2.355,1.77-3.996
		c0-1.359-0.387-2.516-1.16-3.469s-2.199-2.016-4.277-3.188l-2.391-1.383c-2.953-1.688-5.035-3.277-6.246-4.77
		s-1.816-3.223-1.816-5.191c0-2.688,0.969-4.895,2.906-6.621s4.406-2.59,7.406-2.59c2.672,0,5.492,0.445,8.461,1.336v4.5
		c-3.656-1.438-6.383-2.156-8.18-2.156c-1.703,0-3.109,0.453-4.219,1.359s-1.664,2.047-1.664,3.422c0,1.156,0.406,2.18,1.219,3.07
		s2.297,1.953,4.453,3.188l2.484,1.406c3,1.703,5.094,3.313,6.281,4.828s1.781,3.336,1.781,5.461c0,3.016-1.109,5.438-3.328,7.266
		s-5.164,2.742-8.836,2.742C19.082,68.314,16.098,67.807,12.473,66.791z"/>
	<path d="M51.941,67.447c-1.422,0.391-2.656,0.586-3.703,0.586c-2.344,0-4.172-0.672-5.484-2.016s-1.969-3.211-1.969-5.602V45.463
		h-3.188v-3.469h3.188v-4.617l4.617-0.445v5.063h6.656v3.469h-6.656v14.109c0,3.328,1.438,4.992,4.313,4.992
		c0.609,0,1.352-0.102,2.227-0.305V67.447z"/>
	<path d="M84.473,66.51c-4.203,1.203-7.867,1.805-10.992,1.805c-5.516,0-9.746-1.566-12.691-4.699s-4.418-7.637-4.418-13.512
		c0-5.781,1.496-10.262,4.488-13.441s7.199-4.77,12.621-4.77c3.484,0,7.133,0.523,10.945,1.57v4.547
		c-4.781-1.625-8.445-2.438-10.992-2.438c-3.75,0-6.66,1.27-8.73,3.809s-3.105,6.121-3.105,10.746c0,4.578,1.107,8.141,3.324,10.688
		c2.215,2.547,5.32,3.82,9.315,3.82c1.639,0,3.409-0.289,5.313-0.867V52.471h4.922V66.51z"/>
</g>
</svg>
