<?xml version="1.0" encoding="utf-8"?>
<!-- Generator: Adobe Illustrator 16.0.3, SVG Export Plug-In . SVG Version: 6.00 Build 0)  -->
<!DOCTYPE svg PUBLIC "-//W3C//DTD SVG 1.1//EN" "http://www.w3.org/Graphics/SVG/1.1/DTD/svg11.dtd">
<svg version="1.1" id="Ebene_1" xmlns="http://www.w3.org/2000/svg" xmlns:xlink="http://www.w3.org/1999/xlink" x="0px" y="0px"
	 width="98.75px" height="98.75px" viewBox="0 0 98.75 98.75" enable-background="new 0 0 98.75 98.75" xml:space="preserve">
<g>
	<path fill="#00B450" d="M49.25,0c27.25,0,49.5,22.25,49.5,49.25c0,27.25-22.25,49.5-49.5,49.5S0,76.5,0,49.25C0,22.25,22,0,49.25,0
		L49.25,0z"/>
</g>
<polygon display="none" points="52.5,66.25 52.5,32.5 71.5,32.5 71.5,36 57.25,36 57.25,47.5 69.25,47.5 69.25,51 57.25,51 
	57.25,66.25 "/>
<polygon display="none" points="27.25,66.25 27.25,32.5 46.25,32.5 46.25,36 32,36 32,47.5 44,47.5 44,51 32,51 32,66.25 "/>
<g id="S" enable-background="new    ">
	<path d="M6.216,67.447V34.205h8.625c3.324,0,5.874,0.629,7.648,1.887s2.662,3.069,2.662,5.436c0,1.917-0.592,3.624-1.774,5.121
		c-1.183,1.497-2.868,2.658-5.054,3.481c5.436,1.662,8.153,4.664,8.153,9.007c0,1.946-0.599,3.676-1.797,5.188
		c-0.914,1.153-2.014,1.962-3.302,2.426c-1.288,0.464-3.077,0.696-5.368,0.696H6.216z M10.888,48.805h1.505
		c2.53,0,4.484-0.539,5.862-1.617c1.377-1.078,2.066-2.613,2.066-4.604c0-3.234-2.531-4.852-7.592-4.852h-1.842V48.805z
		 M10.888,63.921h0.964c3.452,0,5.685-0.217,6.702-0.651c1.942-0.823,2.914-2.351,2.914-4.582c0-1.977-0.882-3.62-2.645-4.93
		c-1.764-1.311-3.967-1.966-6.612-1.966h-1.322V63.921z"/>
	<path d="M32.675,67.447V34.205h10.063c3.189,0,5.634,0.704,7.333,2.111c1.699,1.407,2.55,3.451,2.55,6.132
		c0,2.111-0.588,3.99-1.764,5.638s-2.827,2.912-4.953,3.796L57,67.447h-5.793l-9.471-14.061h-4.389v14.061H32.675z M37.347,49.86
		h1.53c2.911,0,5.125-0.592,6.641-1.774s2.273-2.912,2.273-5.188c0-3.444-2.491-5.166-7.473-5.166h-2.971V49.86z"/>
	<path d="M66.074,67.447l-8.557-33.242h4.545l6.801,26.235l6.281-26.235h4.537l5.897,25.884l7.328-25.884h3.849l-9.32,33.242h-4.717
		l-5.828-25.573l-6.145,25.573H66.074z"/>
</g>
<rect x="504" y="19" fill="none" width="4" height="5"/>
</svg>
