<?xml version="1.0" encoding="utf-8"?>
<!-- Generator: Adobe Illustrator 16.0.3, SVG Export Plug-In . SVG Version: 6.00 Build 0)  -->
<!DOCTYPE svg PUBLIC "-//W3C//DTD SVG 1.1//EN" "http://www.w3.org/Graphics/SVG/1.1/DTD/svg11.dtd">
<svg version="1.1" id="Ebene_1" xmlns="http://www.w3.org/2000/svg" xmlns:xlink="http://www.w3.org/1999/xlink" x="0px" y="0px"
	 width="98.75px" height="98.75px" viewBox="0 0 98.75 98.75" enable-background="new 0 0 98.75 98.75" xml:space="preserve">
<g>
	<path fill="#DC2805" d="M49.25,0c27.25,0,49.5,22.25,49.5,49.25c0,27.25-22.25,49.5-49.5,49.5S0,76.5,0,49.25C0,22.25,22,0,49.25,0
		L49.25,0z"/>
</g>
<polygon display="none" points="52.5,66.25 52.5,32.5 71.5,32.5 71.5,36 57.25,36 57.25,47.5 69.25,47.5 69.25,51 57.25,51 
	57.25,66.25 "/>
<polygon display="none" points="27.25,66.25 27.25,32.5 46.25,32.5 46.25,36 32,36 32,47.5 44,47.5 44,51 32,51 32,66.25 "/>
<g id="S" enable-background="new    ">
	<path d="M10.246,67.447V32.76h4.828l17.461,26.786V32.76h4.219v34.688h-4.805L14.465,40.668v26.779H10.246z"/>
	<path d="M45.707,67.447V32.76H65.09v3.68H50.629v11.133h12.117v3.633H50.629v12.563h15.469v3.68H45.707z"/>
	<path d="M71.723,67.447V32.76h19.383v3.68H76.645v11.625h12.141v3.633H76.645v15.75H71.723z"/>
</g>
<rect x="504" y="19" fill="none" width="4" height="5"/>
</svg>
