<?xml version="1.0" encoding="utf-8"?>
<!-- Generator: Adobe Illustrator 16.0.3, SVG Export Plug-In . SVG Version: 6.00 Build 0)  -->
<!DOCTYPE svg PUBLIC "-//W3C//DTD SVG 1.1//EN" "http://www.w3.org/Graphics/SVG/1.1/DTD/svg11.dtd">
<svg version="1.1" id="Ebene_1" xmlns="http://www.w3.org/2000/svg" xmlns:xlink="http://www.w3.org/1999/xlink" x="0px" y="0px"
	 width="960px" height="560px" viewBox="0 0 960 560" enable-background="new 0 0 960 560" xml:space="preserve">
<g>
	<path fill="#FF8633" d="M480.25,231c27.25,0,49.5,22.25,49.5,49.25c0,27.25-22.25,49.5-49.5,49.5S431,307.5,431,280.25
		C431,253.25,453,231,480.25,231L480.25,231z"/>
</g>
<polygon display="none" points="483.5,297.25 483.5,263.5 502.5,263.5 502.5,267 488.25,267 488.25,278.5 500.25,278.5 500.25,282 
	488.25,282 488.25,297.25 483.5,297.25 "/>
<polygon display="none" points="458.25,297.25 458.25,263.5 477.25,263.5 477.25,267 463,267 463,278.5 475,278.5 475,282 463,282 
	463,297.25 458.25,297.25 "/>
<text transform="matrix(1 0 0 1 448.8047 298.4473)" font-family="'LucidaSansUnicode'" font-size="48">SO</text>
</svg>
